# xmcd
#
# Track frame offsets:
#	150
#	9807
#	20276
#	25294
#	39280
#	49720
#	58184
#	72814
#	83387
#	92437
#
# Disc length: 1537 seconds
#
# Revision: 0
# Processed by: cddbd v1.5.1PL0 Copyright (c) Steve Scherf et al.
# Submitted via: dBpowerAMP V4.0
#
DISCID=6305ff0a
DTITLE=Various Artist - Summer Beach Party
DYEAR=1900
DGENRE=Oldies
TTITLE0=Movin' n' Groovin' - Duane Eddy
TTITLE1=Hound Dog - Little Richard
TTITLE2=Little Queenie - Chuck Berry
TTITLE3=Big Legged Woman - Jerry Lee Lewis
TTITLE4=That Fat Man - Fats Domino
TTITLE5=Shazam - Duane Eddy
TTITLE6=Mack The Knife - Bobby Darin
TTITLE7=Rocky Road Blues - Gene Vincent
TTITLE8=High School Confidential - Jerry Lee Lewis
TTITLE9=Domino Twist - Fats domino
EXTD=
EXTT0=
EXTT1=
EXTT2=
EXTT3=
EXTT4=
EXTT5=
EXTT6=
EXTT7=
EXTT8=
EXTT9=
PLAYORDER=
